# Blender 4.1.1
# www.blender.org
o Cube
v 0.328008 0.328008 -0.376177
v 0.328008 0.376177 -0.328008
v 0.376177 0.328008 -0.328008
v 0.328008 0.362069 -0.362069
v 0.355818 0.355818 -0.355818
v 0.362069 0.362069 -0.328008
v 0.362069 0.328008 -0.362069
v 0.328008 -0.376177 -0.328008
v 0.328008 -0.328008 -0.376177
v 0.376177 -0.328008 -0.328008
v 0.328008 -0.362069 -0.362069
v 0.355818 -0.355818 -0.355818
v 0.362069 -0.328008 -0.362069
v 0.362069 -0.362069 -0.328008
v 0.376177 0.328008 0.328008
v 0.328008 0.376177 0.328008
v 0.328008 0.328008 0.376177
v 0.362069 0.362069 0.328008
v 0.355818 0.355818 0.355818
v 0.328008 0.362069 0.362069
v 0.362069 0.328008 0.362069
v 0.376177 -0.328008 0.328008
v 0.328008 -0.328008 0.376177
v 0.328008 -0.376177 0.328008
v 0.362069 -0.328008 0.362069
v 0.355818 -0.355818 0.355818
v 0.328008 -0.362069 0.362069
v 0.362069 -0.362069 0.328008
v -0.328008 0.328008 -0.376177
v -0.376177 0.328008 -0.328008
v -0.328008 0.376177 -0.328008
v -0.362069 0.328008 -0.362069
v -0.355818 0.355818 -0.355818
v -0.362069 0.362069 -0.328008
v -0.328008 0.362069 -0.362069
v -0.376177 -0.328008 -0.328008
v -0.328008 -0.328008 -0.376177
v -0.328008 -0.376177 -0.328008
v -0.362069 -0.328008 -0.362069
v -0.355818 -0.355818 -0.355818
v -0.328008 -0.362069 -0.362069
v -0.362069 -0.362069 -0.328008
v -0.376177 0.328008 0.328008
v -0.328008 0.328008 0.376177
v -0.328008 0.376177 0.328008
v -0.362069 0.328008 0.362069
v -0.355818 0.355818 0.355818
v -0.328008 0.362069 0.362069
v -0.362069 0.362069 0.328008
v -0.328008 -0.376177 0.328008
v -0.328008 -0.328008 0.376177
v -0.376177 -0.328008 0.328008
v -0.328008 -0.362069 0.362069
v -0.355818 -0.355818 0.355818
v -0.362069 -0.328008 0.362069
v -0.362069 -0.362069 0.328008
vn 0.1794 0.1794 -0.9673
vn 0.1794 0.9673 -0.1794
vn 0.9673 0.1794 -0.1794
vn 0.1726 0.6965 -0.6965
vn 0.5774 0.5774 -0.5774
vn 0.6965 0.6965 -0.1726
vn 0.6965 0.1726 -0.6965
vn 0.1794 -0.9673 -0.1794
vn 0.1794 -0.1794 -0.9673
vn 0.9673 -0.1794 -0.1794
vn 0.1726 -0.6965 -0.6965
vn 0.5774 -0.5774 -0.5774
vn 0.6965 -0.1726 -0.6965
vn 0.6965 -0.6965 -0.1726
vn 0.9673 0.1794 0.1794
vn 0.1794 0.9673 0.1794
vn 0.1794 0.1794 0.9673
vn 0.6965 0.6965 0.1726
vn 0.5774 0.5774 0.5774
vn 0.1726 0.6965 0.6965
vn 0.6965 0.1726 0.6965
vn 0.9673 -0.1794 0.1794
vn 0.1794 -0.1794 0.9673
vn 0.1794 -0.9673 0.1794
vn 0.6965 -0.1726 0.6965
vn 0.5774 -0.5774 0.5774
vn 0.1726 -0.6965 0.6965
vn 0.6965 -0.6965 0.1726
vn -0.1794 0.1794 -0.9673
vn -0.9673 0.1794 -0.1794
vn -0.1794 0.9673 -0.1794
vn -0.6965 0.1726 -0.6965
vn -0.5774 0.5774 -0.5774
vn -0.6965 0.6965 -0.1726
vn -0.1726 0.6965 -0.6965
vn -0.9673 -0.1794 -0.1794
vn -0.1794 -0.1794 -0.9673
vn -0.1794 -0.9673 -0.1794
vn -0.6965 -0.1726 -0.6965
vn -0.5774 -0.5774 -0.5774
vn -0.1726 -0.6965 -0.6965
vn -0.6965 -0.6965 -0.1726
vn -0.9673 0.1794 0.1794
vn -0.1794 0.1794 0.9673
vn -0.1794 0.9673 0.1794
vn -0.6965 0.1726 0.6965
vn -0.5774 0.5774 0.5774
vn -0.1726 0.6965 0.6965
vn -0.6965 0.6965 0.1726
vn -0.1794 -0.9673 0.1794
vn -0.1794 -0.1794 0.9673
vn -0.9673 -0.1794 0.1794
vn -0.1726 -0.6965 0.6965
vn -0.5774 -0.5774 0.5774
vn -0.6965 -0.1726 0.6965
vn -0.6965 -0.6965 0.1726
vt 0.966519 0.966520
vt 0.033480 0.966520
vt 0.033480 0.033480
vt 0.966520 0.033480
vt 0.033480 0.966520
vt 0.033480 0.033480
vt 0.966520 0.033480
vt 0.966520 0.966520
vt 0.033480 0.033480
vt 0.966520 0.033480
vt 0.966520 0.966520
vt 0.033480 0.966520
vt 0.966519 0.033480
vt 0.966520 0.966520
vt 0.033480 0.966520
vt 0.981351 0.077703
vt 0.980875 0.077703
vt 0.980942 0.077227
vt 0.981351 0.077227
vt 0.980399 0.076752
vt 0.980875 0.076752
vt 0.980399 0.077227
vt 0.981351 0.076752
vt 0.988778 0.076752
vt 0.988778 0.077227
vt 0.988303 0.077160
vt 0.988303 0.076752
vt 0.987827 0.077703
vt 0.987827 0.077227
vt 0.988303 0.077703
vt 0.987827 0.076752
vt 0.981351 0.070275
vt 0.980875 0.070275
vt 0.980875 0.069866
vt 0.981351 0.069799
vt 0.980399 0.070275
vt 0.980399 0.069799
vt 0.981351 0.069324
vt 0.980875 0.069324
vt 0.987827 0.070275
vt 0.987827 0.069799
vt 0.988236 0.069799
vt 0.988303 0.070275
vt 0.987827 0.069324
vt 0.988303 0.069324
vt 0.988778 0.070275
vt 0.988778 0.069799
vt 0.981351 0.084180
vt 0.981351 0.084655
vt 0.981076 0.084655
vt 0.980875 0.084180
vt 0.981351 0.085131
vt 0.980875 0.085131
vt 0.980875 0.084856
vt 0.973923 0.076752
vt 0.973923 0.077227
vt 0.973648 0.077227
vt 0.973447 0.076752
vt 0.987827 0.085131
vt 0.987827 0.084655
vt 0.988102 0.084655
vt 0.988303 0.085131
vt 0.987827 0.084180
vt 0.988303 0.084180
vt 0.988303 0.084454
vt 0.995255 0.076752
vt 0.995731 0.076752
vt 0.995731 0.077026
vt 0.995255 0.077227
vt 0.981351 0.091608
vt 0.981351 0.092083
vt 0.981076 0.092083
vt 0.980875 0.091608
vt 0.981351 0.062847
vt 0.980875 0.062847
vt 0.980875 0.062573
vt 0.981351 0.062371
vt 0.973923 0.070275
vt 0.973447 0.070275
vt 0.973447 0.070000
vt 0.973923 0.069799
vt 0.995255 0.070275
vt 0.995255 0.069799
vt 0.995530 0.069799
vt 0.995731 0.070275
vt 0.987827 0.062847
vt 0.987827 0.062371
vt 0.988102 0.062371
vt 0.988303 0.062847
vt 0.987827 0.091608
vt 0.988303 0.091608
vt 0.988303 0.091882
vt 0.987827 0.092083
vt 0.966520 0.966520
vt 0.033480 0.966520
vt 0.033480 0.033480
vt 0.966520 0.033480
s 1
f 38/1/38 8/2/8 24/3/24 50/4/50
f 52/5/52 43/6/43 30/7/30 36/8/36
f 23/9/23 17/10/17 44/11/44 51/12/51
f 2/13/2 31/14/31 45/15/45 16/6/16
f 10/4/10 3/11/3 15/2/15 22/6/22
f 1/16/1 4/17/4 5/18/5 7/19/7
f 2/20/2 6/21/6 5/18/5 4/22/4
f 3/23/3 7/19/7 5/18/5 6/21/6
f 8/24/8 11/25/11 12/26/12 14/27/14
f 9/28/9 13/29/13 12/26/12 11/30/11
f 10/31/10 14/27/14 12/26/12 13/29/13
f 15/32/15 18/33/18 19/34/19 21/35/21
f 16/36/16 20/37/20 19/34/19 18/33/18
f 17/38/17 21/35/21 19/34/19 20/39/20
f 22/40/22 25/41/25 26/42/26 28/43/28
f 23/44/23 27/45/27 26/42/26 25/41/25
f 24/46/24 28/43/28 26/42/26 27/47/27
f 29/48/29 32/49/32 33/50/33 35/51/35
f 30/52/30 34/53/34 33/54/33 32/49/32
f 31/55/31 35/56/35 33/57/33 34/58/34
f 36/59/36 39/60/39 40/61/40 42/62/42
f 37/63/37 41/64/41 40/65/40 39/60/39
f 38/66/38 42/67/42 40/68/40 41/69/41
f 43/70/43 46/71/46 47/72/47 49/73/49
f 44/74/44 48/75/48 47/76/47 46/77/46
f 45/78/45 49/79/49 47/80/47 48/81/48
f 50/82/50 53/83/53 54/84/54 56/85/56
f 51/86/51 55/87/55 54/88/54 53/89/53
f 52/90/52 56/91/56 54/92/54 55/93/55
f 38/66/38 50/82/50 56/85/56 42/67/42
f 42/62/42 56/91/56 52/90/52 36/59/36
f 8/24/8 38/66/38 41/69/41 11/25/11
f 11/30/11 41/64/41 37/63/37 9/28/9
f 3/23/3 10/31/10 13/29/13 7/19/7
f 7/19/7 13/29/13 9/28/9 1/16/1
f 51/86/51 44/74/44 46/77/46 55/87/55
f 55/93/55 46/71/46 43/70/43 52/90/52
f 17/38/17 23/44/23 25/41/25 21/35/21
f 21/35/21 25/41/25 22/40/22 15/32/15
f 29/48/29 37/63/37 39/60/39 32/49/32
f 32/49/32 39/60/39 36/59/36 30/52/30
f 16/36/16 45/78/45 48/81/48 20/37/20
f 20/39/20 48/75/48 44/74/44 17/38/17
f 2/20/2 16/36/16 18/33/18 6/21/6
f 6/21/6 18/33/18 15/32/15 3/23/3
f 50/82/50 24/46/24 27/47/27 53/83/53
f 53/89/53 27/45/27 23/44/23 51/86/51
f 45/78/45 31/55/31 34/58/34 49/79/49
f 49/73/49 34/53/34 30/52/30 43/70/43
f 31/55/31 2/20/2 4/22/4 35/56/35
f 35/51/35 4/17/4 1/16/1 29/48/29
f 24/46/24 8/24/8 14/27/14 28/43/28
f 28/43/28 14/27/14 10/31/10 22/40/22
f 37/94/37 29/95/29 1/96/1 9/97/9
