# Blender 4.1.1
# www.blender.org
o Cube.001
v 0.328008 0.328008 -0.376177
v 0.328008 0.376177 -0.328008
v 0.376177 0.328008 -0.328008
v 0.328008 0.362069 -0.362069
v 0.355818 0.355818 -0.355818
v 0.362069 0.362069 -0.328008
v 0.362069 0.328008 -0.362069
v 0.328008 -0.376177 -0.328008
v 0.328008 -0.328008 -0.376177
v 0.376177 -0.328008 -0.328008
v 0.328008 -0.362069 -0.362069
v 0.355818 -0.355818 -0.355818
v 0.362069 -0.328008 -0.362069
v 0.362069 -0.362069 -0.328008
v 0.376177 0.328008 0.328008
v 0.328008 0.376177 0.328008
v 0.328008 0.328008 0.376177
v 0.362069 0.362069 0.328008
v 0.355818 0.355818 0.355818
v 0.328008 0.362069 0.362069
v 0.362069 0.328008 0.362069
v 0.376177 -0.328008 0.328008
v 0.328008 -0.328008 0.376177
v 0.328008 -0.376177 0.328008
v 0.362069 -0.328008 0.362069
v 0.355818 -0.355818 0.355818
v 0.328008 -0.362069 0.362069
v 0.362069 -0.362069 0.328008
v -0.328008 0.328008 -0.376177
v -0.376177 0.328008 -0.328008
v -0.328008 0.376177 -0.328008
v -0.362069 0.328008 -0.362069
v -0.355818 0.355818 -0.355818
v -0.362069 0.362069 -0.328008
v -0.328008 0.362069 -0.362069
v -0.376177 -0.328008 -0.328008
v -0.328008 -0.328008 -0.376177
v -0.328008 -0.376177 -0.328008
v -0.362069 -0.328008 -0.362069
v -0.355818 -0.355818 -0.355818
v -0.328008 -0.362069 -0.362069
v -0.362069 -0.362069 -0.328008
v -0.376177 0.328008 0.328008
v -0.328008 0.328008 0.376177
v -0.328008 0.376177 0.328008
v -0.362069 0.328008 0.362069
v -0.355818 0.355818 0.355818
v -0.328008 0.362069 0.362069
v -0.362069 0.362069 0.328008
v -0.328008 -0.376177 0.328008
v -0.328008 -0.328008 0.376177
v -0.376177 -0.328008 0.328008
v -0.328008 -0.362069 0.362069
v -0.355818 -0.355818 0.355818
v -0.362069 -0.328008 0.362069
v -0.362069 -0.362069 0.328008
vn -0.1794 -0.9673 -0.1794
vn 0.1794 -0.9673 -0.1794
vn 0.1794 -0.9673 0.1794
vn -0.1794 -0.9673 0.1794
vn -0.9673 -0.1794 0.1794
vn -0.9673 0.1794 0.1794
vn -0.9673 0.1794 -0.1794
vn -0.9673 -0.1794 -0.1794
vn 0.1794 -0.1794 0.9673
vn 0.1794 0.1794 0.9673
vn -0.1794 0.1794 0.9673
vn -0.1794 -0.1794 0.9673
vn 0.1794 0.9673 -0.1794
vn -0.1794 0.9673 -0.1794
vn -0.1794 0.9673 0.1794
vn 0.1794 0.9673 0.1794
vn 0.9673 -0.1794 -0.1794
vn 0.9673 0.1794 -0.1794
vn 0.9673 0.1794 0.1794
vn 0.9673 -0.1794 0.1794
vn 0.1794 0.1794 -0.9673
vn 0.1726 0.6965 -0.6965
vn 0.5774 0.5774 -0.5774
vn 0.6965 0.1726 -0.6965
vn 0.6965 0.6965 -0.1726
vn 0.1726 -0.6965 -0.6965
vn 0.5774 -0.5774 -0.5774
vn 0.6965 -0.6965 -0.1726
vn 0.1794 -0.1794 -0.9673
vn 0.6965 -0.1726 -0.6965
vn 0.6965 0.6965 0.1726
vn 0.5774 0.5774 0.5774
vn 0.6965 0.1726 0.6965
vn 0.1726 0.6965 0.6965
vn 0.6965 -0.1726 0.6965
vn 0.5774 -0.5774 0.5774
vn 0.6965 -0.6965 0.1726
vn 0.1726 -0.6965 0.6965
vn -0.1794 0.1794 -0.9673
vn -0.6965 0.1726 -0.6965
vn -0.5774 0.5774 -0.5774
vn -0.1726 0.6965 -0.6965
vn -0.6965 0.6965 -0.1726
vn -0.6965 -0.1726 -0.6965
vn -0.5774 -0.5774 -0.5774
vn -0.6965 -0.6965 -0.1726
vn -0.1794 -0.1794 -0.9673
vn -0.1726 -0.6965 -0.6965
vn -0.6965 0.1726 0.6965
vn -0.5774 0.5774 0.5774
vn -0.6965 0.6965 0.1726
vn -0.1726 0.6965 0.6965
vn -0.1726 -0.6965 0.6965
vn -0.5774 -0.5774 0.5774
vn -0.6965 -0.6965 0.1726
vn -0.6965 -0.1726 0.6965
vt 0.998915 0.005519
vt 0.988722 0.005519
vt 0.988722 0.000422
vt 0.998915 0.000422
vt 0.966520 0.016740
vt 0.966520 0.483260
vt 0.033480 0.483260
vt 0.033480 0.016740
vt 0.966520 0.016740
vt 0.966520 0.483260
vt 0.033480 0.483260
vt 0.033480 0.016740
vt 0.966519 0.516740
vt 0.966520 0.983260
vt 0.033480 0.983260
vt 0.033480 0.516740
vt 0.966520 0.016740
vt 0.966520 0.483260
vt 0.033480 0.483260
vt 0.033480 0.016740
vt 0.992703 0.003059
vt 0.992557 0.003059
vt 0.992578 0.002987
vt 0.992703 0.002987
vt 0.992412 0.002914
vt 0.992557 0.002914
vt 0.992412 0.002987
vt 0.992703 0.002914
vt 0.994968 0.002914
vt 0.994968 0.002987
vt 0.994823 0.002977
vt 0.994823 0.002914
vt 0.994678 0.003059
vt 0.994678 0.002987
vt 0.994823 0.003059
vt 0.994678 0.002914
vt 0.992703 0.001926
vt 0.992557 0.001926
vt 0.992557 0.001864
vt 0.992703 0.001854
vt 0.992412 0.001926
vt 0.992412 0.001854
vt 0.992703 0.001781
vt 0.992557 0.001781
vt 0.994678 0.001926
vt 0.994678 0.001854
vt 0.994803 0.001854
vt 0.994823 0.001926
vt 0.994678 0.001781
vt 0.994823 0.001781
vt 0.994968 0.001926
vt 0.994968 0.001854
vt 0.992703 0.004047
vt 0.992703 0.004120
vt 0.992619 0.004120
vt 0.992557 0.004047
vt 0.992703 0.004192
vt 0.992557 0.004192
vt 0.992557 0.004150
vt 0.990437 0.002914
vt 0.990437 0.002987
vt 0.990353 0.002987
vt 0.990292 0.002914
vt 0.994678 0.004192
vt 0.994678 0.004120
vt 0.994762 0.004120
vt 0.994823 0.004192
vt 0.994678 0.004047
vt 0.994823 0.004047
vt 0.994823 0.004089
vt 0.996944 0.002914
vt 0.997089 0.002914
vt 0.997089 0.002956
vt 0.996944 0.002987
vt 0.992703 0.005180
vt 0.992703 0.005252
vt 0.992619 0.005252
vt 0.992557 0.005180
vt 0.992703 0.000794
vt 0.992557 0.000794
vt 0.992557 0.000752
vt 0.992703 0.000721
vt 0.990437 0.001926
vt 0.990292 0.001926
vt 0.990292 0.001885
vt 0.990437 0.001854
vt 0.996944 0.001926
vt 0.996944 0.001854
vt 0.997028 0.001854
vt 0.997089 0.001926
vt 0.994678 0.000794
vt 0.994678 0.000721
vt 0.994762 0.000721
vt 0.994823 0.000794
vt 0.994678 0.005180
vt 0.994823 0.005180
vt 0.994823 0.005222
vt 0.994678 0.005252
vt 0.966520 0.016740
vt 0.033480 0.483260
vt 0.033480 0.016740
s 1
f 38/1/1 8/2/2 24/3/3 50/4/4
f 52/5/5 43/6/6 30/7/7 36/8/8
f 23/9/9 17/10/10 44/11/11 51/12/12
f 2/13/13 31/14/14 45/15/15 16/16/16
f 10/17/17 3/18/18 15/19/19 22/20/20
f 1/21/21 4/22/22 5/23/23 7/24/24
f 2/25/13 6/26/25 5/23/23 4/27/22
f 3/28/18 7/24/24 5/23/23 6/26/25
f 8/29/2 11/30/26 12/31/27 14/32/28
f 9/33/29 13/34/30 12/31/27 11/35/26
f 10/36/17 14/32/28 12/31/27 13/34/30
f 15/37/19 18/38/31 19/39/32 21/40/33
f 16/41/16 20/42/34 19/39/32 18/38/31
f 17/43/10 21/40/33 19/39/32 20/44/34
f 22/45/20 25/46/35 26/47/36 28/48/37
f 23/49/9 27/50/38 26/47/36 25/46/35
f 24/51/3 28/48/37 26/47/36 27/52/38
f 29/53/39 32/54/40 33/55/41 35/56/42
f 30/57/7 34/58/43 33/59/41 32/54/40
f 31/60/14 35/61/42 33/62/41 34/63/43
f 36/64/8 39/65/44 40/66/45 42/67/46
f 37/68/47 41/69/48 40/70/45 39/65/44
f 38/71/1 42/72/46 40/73/45 41/74/48
f 43/75/6 46/76/49 47/77/50 49/78/51
f 44/79/11 48/80/52 47/81/50 46/82/49
f 45/83/15 49/84/51 47/85/50 48/86/52
f 50/87/4 53/88/53 54/89/54 56/90/55
f 51/91/12 55/92/56 54/93/54 53/94/53
f 52/95/5 56/96/55 54/97/54 55/98/56
f 38/71/1 50/87/4 56/90/55 42/72/46
f 42/67/46 56/96/55 52/95/5 36/64/8
f 8/29/2 38/71/1 41/74/48 11/30/26
f 11/35/26 41/69/48 37/68/47 9/33/29
f 3/28/18 10/36/17 13/34/30 7/24/24
f 7/24/24 13/34/30 9/33/29 1/21/21
f 51/91/12 44/79/11 46/82/49 55/92/56
f 55/98/56 46/76/49 43/75/6 52/95/5
f 17/43/10 23/49/9 25/46/35 21/40/33
f 21/40/33 25/46/35 22/45/20 15/37/19
f 29/53/39 37/68/47 39/65/44 32/54/40
f 32/54/40 39/65/44 36/64/8 30/57/7
f 16/41/16 45/83/15 48/86/52 20/42/34
f 20/44/34 48/80/52 44/79/11 17/43/10
f 2/25/13 16/41/16 18/38/31 6/26/25
f 6/26/25 18/38/31 15/37/19 3/28/18
f 50/87/4 24/51/3 27/52/38 53/88/53
f 53/94/53 27/50/38 23/49/9 51/91/12
f 45/83/15 31/60/14 34/63/43 49/84/51
f 49/78/51 34/58/43 30/57/7 43/75/6
f 31/60/14 2/25/13 4/27/22 35/61/42
f 35/56/42 4/22/22 1/21/21 29/53/39
f 24/51/3 8/29/2 14/32/28 28/48/37
f 28/48/37 14/32/28 10/36/17 22/45/20
f 37/99/47 29/6/39 1/100/21 9/101/29
