# This file uses centimeters as units for non-parametric coordinates.

mtllib SmallRock1UV_v001.mtl
g default
v 0.458827 -0.385362 -0.373458
v 0.375005 -0.385362 -0.705226
v 0.109279 -0.385362 -0.719372
v -0.109279 -0.385362 -0.719372
v -0.430049 -0.385362 -0.665446
v -0.519345 -0.385362 -0.408705
v -0.491097 -0.385362 -0.000000
v -0.442463 -0.385362 0.320151
v -0.450295 -0.385362 0.707827
v -0.205359 -0.385362 0.798363
v 0.109279 -0.385362 0.719372
v 0.437627 -0.385362 0.693324
v 0.557896 -0.385362 0.370028
v 0.491097 -0.385362 -0.000000
v 0.658628 -0.252911 -0.518027
v 0.513272 -0.252911 -0.965729
v 0.158626 -0.252911 -1.044215
v -0.158626 -0.252911 -1.044215
v -0.568316 -0.252911 -0.925950
v -0.719146 -0.252911 -0.553274
v -0.712859 -0.252911 -0.000000
v -0.642264 -0.252911 0.464719
v -0.588562 -0.252911 0.968331
v -0.254706 -0.252911 1.123206
v 0.158626 -0.252911 1.044215
v 0.575893 -0.252911 0.953828
v 0.757696 -0.252911 0.514596
v 0.712859 -0.252911 0.000000
v 0.699000 0.000000 -0.547238
v 0.541210 0.000000 -1.018367
v 0.168597 0.000000 -1.109854
v -0.168597 0.000000 -1.109854
v -0.596254 0.000000 -0.978588
v -0.759518 0.000000 -0.582486
v -0.757668 0.000000 -0.000000
v -0.682636 0.000000 0.493931
v -0.616500 0.000000 1.020969
v -0.264677 0.000000 1.188845
v 0.168597 0.000000 1.109854
v 0.603831 0.000000 1.006466
v 0.798068 0.000000 0.543808
v 0.757668 0.000000 0.000000
v 0.658628 0.252911 -0.518027
v 0.513272 0.252911 -0.965729
v 0.158626 0.252911 -1.044215
v -0.158626 0.252911 -1.044215
v -0.568316 0.252911 -0.925950
v -0.719146 0.252911 -0.553274
v -0.712859 0.252911 -0.000000
v -0.642264 0.252911 0.464719
v -0.588562 0.252911 0.968331
v -0.254706 0.252911 1.123206
v 0.158626 0.252911 1.044215
v 0.575893 0.252911 0.953828
v 0.757696 0.252911 0.514596
v 0.712859 0.252911 0.000000
v 0.458827 0.359136 -0.373458
v 0.375005 0.359136 -0.705226
v 0.109279 0.359136 -0.719372
v -0.109279 0.359136 -0.719372
v -0.430049 0.359136 -0.665446
v -0.519345 0.359136 -0.408705
v -0.491097 0.359136 -0.000000
v -0.442463 0.359136 0.320151
v -0.450295 0.359136 0.707827
v -0.205359 0.359136 0.798363
v 0.109279 0.359136 0.719372
v 0.437627 0.359136 0.693324
v 0.557896 0.359136 0.370028
v 0.491097 0.359136 -0.000000
v -0.051349 -0.466224 -0.022828
v -0.051349 0.451116 -0.022828
vt 0.665893 0.467582
vt 0.665893 0.390067
vt 0.772958 0.380954
vt 0.772958 0.462524
vt 0.609822 0.492612
vt 0.609822 0.435170
vt 0.880023 0.390067
vt 0.880023 0.467582
vt 0.665893 0.557272
vt 0.772958 0.557272
vt 0.609822 0.557272
vt 0.924992 0.435170
vt 0.924992 0.492612
vt 0.880023 0.557272
vt 0.665893 0.646368
vt 0.772958 0.651425
vt 0.609822 0.621337
vt 0.924992 0.557272
vt 0.880023 0.646368
vt 0.665893 0.722415
vt 0.772958 0.731529
vt 0.609822 0.677312
vt 0.924992 0.621337
vt 0.880023 0.722415
vt 0.924992 0.677312
vt 0.345037 0.653515
vt 0.345037 0.557722
vt 0.452102 0.557722
vt 0.452102 0.658572
vt 0.288967 0.628484
vt 0.288967 0.557722
vt 0.345037 0.477262
vt 0.452102 0.472204
vt 0.559168 0.557722
vt 0.559168 0.653515
vt 0.345037 0.718039
vt 0.452102 0.727152
vt 0.288967 0.502292
vt 0.288967 0.672936
vt 0.345037 0.390067
vt 0.452102 0.380954
vt 0.559168 0.477262
vt 0.604136 0.557722
vt 0.604136 0.628484
vt 0.559168 0.718039
vt 0.288967 0.435171
vt 0.559168 0.390067
vt 0.604136 0.502292
vt 0.604136 0.672936
vt 0.604136 0.435171
vt 0.252508 0.060684
vt 0.274313 0.118125
vt 0.141596 0.178833
vt 0.282708 0.182785
vt 0.183382 0.058235
vt 0.300085 0.246851
vt 0.196219 0.001992
vt 0.288476 0.015581
vt 0.126526 0.058235
vt 0.268798 0.302826
vt 0.113689 0.001992
vt 0.043082 0.067571
vt 0.183382 0.307336
vt 0.007113 0.022468
vt 0.019852 0.112023
vt 0.304767 0.347929
vt 0.196219 0.363578
vt 0.101532 0.321012
vt 0.027201 0.182785
vt 0.088695 0.377254
vt 0.037815 0.305337
vt 0.039852 0.238215
vt 0.001846 0.350440
vt 0.583382 0.261121
vt 0.561577 0.318562
vt 0.450665 0.200414
vt 0.492451 0.321012
vt 0.591776 0.196461
vt 0.597545 0.363665
vt 0.505288 0.377254
vt 0.435595 0.321012
vt 0.609154 0.132396
vt 0.422758 0.377254
vt 0.352150 0.311675
vt 0.577867 0.076421
vt 0.316182 0.356778
vt 0.328921 0.267224
vt 0.492451 0.071911
vt 0.336269 0.196461
vt 0.505288 0.015668
vt 0.613835 0.031318
vt 0.410601 0.058235
vt 0.348921 0.141031
vt 0.397764 0.001992
vt 0.346883 0.073910
vt 0.310915 0.028807
vt 0.215977 0.709377
vt 0.215977 0.801634
vt 0.108911 0.799040
vt 0.108911 0.702109
vt 0.215977 0.884164
vt 0.108911 0.886758
vt 0.001846 0.801634
vt 0.001846 0.709377
vt 0.215977 0.990740
vt 0.108911 0.998008
vt 0.001846 0.884164
vt 0.001846 0.990740
vt 0.069150 0.691142
vt 0.069150 0.604293
vt 0.176215 0.606887
vt 0.176215 0.698410
vt 0.069150 0.496769
vt 0.176215 0.494175
vt 0.283280 0.604293
vt 0.283280 0.691142
vt 0.069150 0.388222
vt 0.176215 0.380954
vt 0.283280 0.496769
vt 0.283280 0.388222
vn 0.495997 -0.855991 -0.145832
vn 0.495997 -0.855991 -0.145832
vn 0.495997 -0.855991 -0.145832
vn 0.495997 -0.855991 -0.145832
vn 0.059099 -0.916436 -0.395794
vn 0.059099 -0.916436 -0.395794
vn 0.059099 -0.916436 -0.395794
vn 0.059099 -0.916436 -0.395794
vn 0.000000 -0.925986 -0.377558
vn 0.000000 -0.925986 -0.377558
vn 0.000000 -0.925986 -0.377558
vn 0.000000 -0.925986 -0.377558
vn -0.091044 -0.917903 -0.386219
vn -0.091044 -0.917903 -0.386219
vn -0.091044 -0.917903 -0.386219
vn -0.091044 -0.917903 -0.386219
vn -0.466071 -0.866696 -0.177808
vn -0.466071 -0.866696 -0.177808
vn -0.466071 -0.866696 -0.177808
vn -0.466071 -0.866696 -0.177808
vn -0.536684 -0.843563 0.019267
vn -0.536684 -0.843563 0.019267
vn -0.536684 -0.843563 0.019267
vn -0.536684 -0.843563 0.019267
vn -0.511219 -0.855935 0.077659
vn -0.511219 -0.855935 0.077659
vn -0.511219 -0.855935 0.077659
vn -0.511219 -0.855935 0.077659
vn -0.593559 -0.804211 0.030547
vn -0.593559 -0.804211 0.030547
vn -0.593559 -0.804211 0.030547
vn -0.593558 -0.804211 0.030547
vn -0.155034 -0.917753 0.365642
vn -0.155034 -0.917753 0.365642
vn -0.155034 -0.917753 0.365642
vn -0.155034 -0.917753 0.365642
vn 0.081663 -0.922893 0.376298
vn 0.081663 -0.922893 0.376297
vn 0.081663 -0.922893 0.376298
vn 0.081663 -0.922893 0.376298
vn 0.061689 -0.916593 0.395035
vn 0.061689 -0.916593 0.395035
vn 0.061689 -0.916593 0.395035
vn 0.061689 -0.916593 0.395035
vn 0.461328 -0.868204 0.182753
vn 0.461328 -0.868204 0.182753
vn 0.461328 -0.868204 0.182753
vn 0.461328 -0.868204 0.182753
vn 0.547667 -0.833837 -0.069114
vn 0.547667 -0.833837 -0.069114
vn 0.547667 -0.833837 -0.069114
vn 0.547667 -0.833837 -0.069114
vn 0.518943 -0.853324 -0.050353
vn 0.518943 -0.853325 -0.050353
vn 0.518943 -0.853324 -0.050353
vn 0.518943 -0.853324 -0.050353
vn 0.934800 -0.176149 -0.308415
vn 0.934800 -0.176149 -0.308415
vn 0.934800 -0.176149 -0.308415
vn 0.934800 -0.176149 -0.308415
vn 0.221059 -0.237733 -0.945841
vn 0.221059 -0.237733 -0.945841
vn 0.221059 -0.237733 -0.945841
vn 0.221059 -0.237733 -0.945841
vn 0.000000 -0.251209 -0.967933
vn 0.000000 -0.251209 -0.967933
vn 0.000000 -0.251209 -0.967933
vn 0.000000 -0.251209 -0.967933
vn -0.277356 -0.238416 -0.930716
vn -0.277356 -0.238416 -0.930716
vn -0.277356 -0.238416 -0.930716
vn -0.277356 -0.238416 -0.930716
vn -0.910074 -0.183070 -0.371822
vn -0.910074 -0.183070 -0.371822
vn -0.910074 -0.183070 -0.371822
vn -0.910074 -0.183070 -0.371822
vn -0.986157 -0.165663 0.007064
vn -0.986157 -0.165663 0.007064
vn -0.986157 -0.165663 0.007064
vn -0.986157 -0.165663 0.007064
vn -0.973831 -0.172539 0.147934
vn -0.973831 -0.172539 0.147934
vn -0.973831 -0.172539 0.147934
vn -0.973831 -0.172539 0.147934
vn -0.981906 -0.151079 0.114170
vn -0.981906 -0.151079 0.114170
vn -0.981906 -0.151079 0.114170
vn -0.981906 -0.151079 0.114170
vn -0.413793 -0.236571 0.879096
vn -0.413793 -0.236571 0.879096
vn -0.413793 -0.236571 0.879096
vn -0.413793 -0.236571 0.879096
vn 0.177746 -0.247209 0.952520
vn 0.177746 -0.247209 0.952520
vn 0.177746 -0.247209 0.952520
vn 0.177746 -0.247209 0.952520
vn 0.215300 -0.237619 0.947197
vn 0.215300 -0.237619 0.947197
vn 0.215300 -0.237619 0.947197
vn 0.215300 -0.237619 0.947197
vn 0.907271 -0.183737 0.378285
vn 0.907271 -0.183737 0.378285
vn 0.907271 -0.183737 0.378285
vn 0.907271 -0.183737 0.378285
vn 0.983754 -0.161091 -0.079226
vn 0.983754 -0.161091 -0.079226
vn 0.983754 -0.161091 -0.079226
vn 0.983754 -0.161091 -0.079226
vn 0.979785 -0.170995 -0.103840
vn 0.979785 -0.170995 -0.103840
vn 0.979785 -0.170995 -0.103840
vn 0.979785 -0.170995 -0.103840
vn 0.934800 0.176149 -0.308415
vn 0.934800 0.176149 -0.308415
vn 0.934800 0.176149 -0.308415
vn 0.934800 0.176149 -0.308415
vn 0.221059 0.237733 -0.945841
vn 0.221059 0.237733 -0.945841
vn 0.221059 0.237733 -0.945841
vn 0.221059 0.237733 -0.945841
vn 0.000000 0.251209 -0.967933
vn 0.000000 0.251209 -0.967933
vn 0.000000 0.251209 -0.967933
vn 0.000000 0.251209 -0.967933
vn -0.277356 0.238416 -0.930716
vn -0.277356 0.238416 -0.930716
vn -0.277356 0.238416 -0.930716
vn -0.277356 0.238416 -0.930716
vn -0.910074 0.183070 -0.371822
vn -0.910074 0.183070 -0.371822
vn -0.910074 0.183070 -0.371822
vn -0.910074 0.183070 -0.371822
vn -0.986157 0.165663 0.007064
vn -0.986157 0.165663 0.007064
vn -0.986157 0.165663 0.007064
vn -0.986157 0.165663 0.007064
vn -0.973831 0.172539 0.147934
vn -0.973831 0.172539 0.147934
vn -0.973831 0.172539 0.147934
vn -0.973831 0.172539 0.147934
vn -0.981906 0.151079 0.114170
vn -0.981906 0.151079 0.114170
vn -0.981906 0.151079 0.114170
vn -0.981906 0.151079 0.114170
vn -0.413793 0.236571 0.879096
vn -0.413793 0.236571 0.879096
vn -0.413793 0.236571 0.879096
vn -0.413793 0.236571 0.879096
vn 0.177746 0.247209 0.952520
vn 0.177746 0.247209 0.952520
vn 0.177746 0.247209 0.952520
vn 0.177746 0.247209 0.952520
vn 0.215300 0.237619 0.947197
vn 0.215300 0.237619 0.947197
vn 0.215300 0.237619 0.947197
vn 0.215300 0.237619 0.947197
vn 0.907271 0.183737 0.378285
vn 0.907271 0.183737 0.378285
vn 0.907271 0.183737 0.378285
vn 0.907271 0.183737 0.378285
vn 0.983754 0.161091 -0.079226
vn 0.983754 0.161091 -0.079226
vn 0.983754 0.161091 -0.079226
vn 0.983754 0.161091 -0.079226
vn 0.979785 0.170995 -0.103840
vn 0.979785 0.170995 -0.103840
vn 0.979785 0.170995 -0.103840
vn 0.979785 0.170995 -0.103840
vn 0.418231 0.899979 -0.122967
vn 0.418231 0.899979 -0.122967
vn 0.418231 0.899979 -0.122967
vn 0.418231 0.899979 -0.122967
vn 0.048813 0.943796 -0.326903
vn 0.048813 0.943796 -0.326903
vn 0.048813 0.943796 -0.326903
vn 0.048813 0.943796 -0.326903
vn 0.000000 0.950472 -0.310809
vn 0.000000 0.950472 -0.310809
vn 0.000000 0.950472 -0.310809
vn 0.000000 0.950472 -0.310809
vn -0.075159 0.944826 -0.318833
vn -0.075159 0.944826 -0.318833
vn -0.075159 0.944826 -0.318833
vn -0.075159 0.944826 -0.318833
vn -0.391576 0.907938 -0.149388
vn -0.391576 0.907938 -0.149388
vn -0.391576 0.907938 -0.149388
vn -0.391576 0.907938 -0.149388
vn -0.454436 0.890630 0.016314
vn -0.454436 0.890630 0.016314
vn -0.454436 0.890630 0.016314
vn -0.454436 0.890630 0.016314
vn -0.431075 0.899937 0.065484
vn -0.431075 0.899937 0.065484
vn -0.431075 0.899937 0.065484
vn -0.431075 0.899937 0.065484
vn -0.509203 0.860248 0.026206
vn -0.509203 0.860247 0.026206
vn -0.509203 0.860248 0.026206
vn -0.509203 0.860247 0.026206
vn -0.127991 0.944721 0.301861
vn -0.127991 0.944721 0.301861
vn -0.127991 0.944721 0.301861
vn -0.127991 0.944721 0.301861
vn 0.067298 0.948318 0.310104
vn 0.067298 0.948318 0.310104
vn 0.067298 0.948318 0.310104
vn 0.067298 0.948318 0.310104
vn 0.050949 0.943906 0.326259
vn 0.050949 0.943906 0.326259
vn 0.050949 0.943906 0.326259
vn 0.050949 0.943906 0.326259
vn 0.387392 0.909052 0.153464
vn 0.387392 0.909052 0.153464
vn 0.387392 0.909052 0.153464
vn 0.387392 0.909052 0.153464
vn 0.465247 0.883232 -0.058713
vn 0.465247 0.883232 -0.058713
vn 0.465247 0.883232 -0.058713
vn 0.465247 0.883232 -0.058713
vn 0.437973 0.897983 -0.042496
vn 0.437973 0.897983 -0.042496
vn 0.437973 0.897983 -0.042496
vn 0.437973 0.897983 -0.042496
vn 0.133757 -0.990438 -0.033794
vn 0.133757 -0.990438 -0.033794
vn 0.133757 -0.990438 -0.033794
vn 0.006066 -0.993470 -0.113934
vn 0.006066 -0.993470 -0.113934
vn 0.006066 -0.993470 -0.113934
vn 0.000000 -0.993329 -0.115316
vn 0.000000 -0.993329 -0.115316
vn 0.000000 -0.993329 -0.115316
vn -0.019119 -0.993328 -0.113726
vn -0.019119 -0.993328 -0.113726
vn -0.019119 -0.993328 -0.113726
vn -0.132940 -0.990045 -0.046237
vn -0.132940 -0.990045 -0.046237
vn -0.132940 -0.990045 -0.046237
vn -0.180211 -0.983549 0.012456
vn -0.180211 -0.983549 0.012456
vn -0.180211 -0.983549 0.012456
vn -0.179415 -0.983396 0.027255
vn -0.179415 -0.983396 0.027255
vn -0.179415 -0.983396 0.027255
vn -0.205963 -0.978551 -0.004161
vn -0.205963 -0.978551 -0.004161
vn -0.205963 -0.978551 -0.004161
vn -0.033875 -0.995215 0.091645
vn -0.033875 -0.995215 0.091645
vn -0.033875 -0.995215 0.091645
vn 0.025796 -0.994372 0.102753
vn 0.025796 -0.994372 0.102753
vn 0.025796 -0.994372 0.102753
vn 0.008449 -0.994277 0.106497
vn 0.008449 -0.994277 0.106497
vn 0.008449 -0.994277 0.106497
vn 0.106355 -0.993541 0.039565
vn 0.106355 -0.993541 0.039565
vn 0.106355 -0.993541 0.039565
vn 0.148491 -0.988550 -0.026806
vn 0.148491 -0.988550 -0.026806
vn 0.148491 -0.988550 -0.026806
vn 0.147954 -0.988912 -0.012785
vn 0.147954 -0.988912 -0.012785
vn 0.147954 -0.988912 -0.012785
vn 0.151723 0.987679 -0.038333
vn 0.151723 0.987679 -0.038333
vn 0.151723 0.987679 -0.038333
vn 0.006886 0.991575 -0.129351
vn 0.006886 0.991575 -0.129351
vn 0.006886 0.991575 -0.129351
vn 0.000000 0.991394 -0.130915
vn 0.000000 0.991394 -0.130915
vn 0.000000 0.991394 -0.130915
vn -0.021705 0.991393 -0.129109
vn -0.021705 0.991393 -0.129109
vn -0.021705 0.991393 -0.129109
vn -0.150779 0.987176 -0.052441
vn -0.150779 0.987176 -0.052441
vn -0.150779 0.987176 -0.052441
vn -0.204012 0.978867 0.014101
vn -0.204012 0.978867 0.014101
vn -0.204012 0.978867 0.014101
vn -0.203101 0.978671 0.030853
vn -0.203101 0.978671 0.030853
vn -0.203101 0.978671 0.030853
vn -0.232832 0.972506 -0.004704
vn -0.232832 0.972506 -0.004704
vn -0.232832 0.972506 -0.004704
vn -0.038478 0.993822 0.104099
vn -0.038478 0.993822 0.104099
vn -0.038478 0.993822 0.104099
vn 0.029295 0.992736 0.116688
vn 0.029295 0.992737 0.116688
vn 0.029295 0.992737 0.116688
vn 0.009594 0.992614 0.120936
vn 0.009594 0.992614 0.120936
vn 0.009594 0.992614 0.120936
vn 0.120749 0.991666 0.044920
vn 0.120749 0.991666 0.044920
vn 0.120749 0.991666 0.044920
vn 0.168344 0.985260 -0.030390
vn 0.168344 0.985260 -0.030390
vn 0.168344 0.985260 -0.030390
vn 0.167753 0.985722 -0.014495
vn 0.167753 0.985722 -0.014495
vn 0.167753 0.985722 -0.014495
s off
g pSphere1
usemtl initialShadingGroup
f 1/5/1 2/6/2 16/2/3 15/1/4
f 2/51/5 3/55/6 17/57/7 16/58/8
f 3/55/9 4/59/10 18/61/11 17/57/12
f 4/59/13 5/62/14 19/64/15 18/61/16
f 5/39/17 6/30/18 20/26/19 19/36/20
f 6/30/21 7/31/22 21/27/23 20/26/24
f 7/31/25 8/38/26 22/32/27 21/27/28
f 8/38/29 9/46/30 23/40/31 22/32/32
f 9/71/33 10/68/34 24/70/35 23/73/36
f 10/68/37 11/63/38 25/67/39 24/70/40
f 11/63/41 12/60/42 26/66/43 25/67/44
f 12/22/45 13/17/46 27/15/47 26/20/48
f 13/17/49 14/11/50 28/9/51 27/15/52
f 14/11/53 1/5/54 15/1/55 28/9/56
f 15/1/57 16/2/58 30/3/59 29/4/60
f 16/97/61 17/98/62 31/99/63 30/100/64
f 17/98/65 18/101/66 32/102/67 31/99/68
f 18/101/69 19/105/70 33/106/71 32/102/72
f 19/36/73 20/26/74 34/29/75 33/37/76
f 20/26/77 21/27/78 35/28/79 34/29/80
f 21/27/81 22/32/82 36/33/83 35/28/84
f 22/32/85 23/40/86 37/41/87 36/33/88
f 23/109/89 24/110/90 38/111/91 37/112/92
f 24/110/93 25/113/94 39/114/95 38/111/96
f 25/113/97 26/117/98 40/118/99 39/114/100
f 26/20/101 27/15/102 41/16/103 40/21/104
f 27/15/105 28/9/106 42/10/107 41/16/108
f 28/9/109 15/1/110 29/4/111 42/10/112
f 29/4/113 30/3/114 44/7/115 43/8/116
f 30/100/117 31/99/118 45/103/119 44/104/120
f 31/99/121 32/102/122 46/107/123 45/103/124
f 32/102/125 33/106/126 47/108/127 46/107/128
f 33/37/129 34/29/130 48/35/131 47/45/132
f 34/29/133 35/28/134 49/34/135 48/35/136
f 35/28/137 36/33/138 50/42/139 49/34/140
f 36/33/141 37/41/142 51/47/143 50/42/144
f 37/112/145 38/111/146 52/115/147 51/116/148
f 38/111/149 39/114/150 53/119/151 52/115/152
f 39/114/153 40/118/154 54/120/155 53/119/156
f 40/21/157 41/16/158 55/19/159 54/24/160
f 41/16/161 42/10/162 56/14/163 55/19/164
f 42/10/165 29/4/166 43/8/167 56/14/168
f 43/8/169 44/7/170 58/12/171 57/13/172
f 44/79/173 45/80/174 59/77/175 58/75/176
f 45/80/177 46/83/178 60/81/179 59/77/180
f 46/83/181 47/86/182 61/84/183 60/81/184
f 47/45/185 48/35/186 62/44/187 61/49/188
f 48/35/189 49/34/190 63/43/191 62/44/192
f 49/34/193 50/42/194 64/48/195 63/43/196
f 50/42/197 51/47/198 65/50/199 64/48/200
f 51/96/201 52/94/202 66/92/203 65/95/204
f 52/94/205 53/90/206 67/88/207 66/92/208
f 53/90/209 54/91/210 68/85/211 67/88/212
f 54/24/213 55/19/214 69/23/215 68/25/216
f 55/19/217 56/14/218 70/18/219 69/23/220
f 56/14/221 43/8/222 57/13/223 70/18/224
f 2/51/225 1/52/226 71/53/227
f 3/55/228 2/51/229 71/53/230
f 4/59/231 3/55/232 71/53/233
f 5/62/234 4/59/235 71/53/236
f 6/65/237 5/62/238 71/53/239
f 7/69/240 6/65/241 71/53/242
f 8/72/243 7/69/244 71/53/245
f 9/71/246 8/72/247 71/53/248
f 10/68/249 9/71/250 71/53/251
f 11/63/252 10/68/253 71/53/254
f 12/60/255 11/63/256 71/53/257
f 13/56/258 12/60/259 71/53/260
f 14/54/261 13/56/262 71/53/263
f 1/52/264 14/54/265 71/53/266
f 57/74/267 58/75/268 72/76/269
f 58/75/270 59/77/271 72/76/272
f 59/77/273 60/81/274 72/76/275
f 60/81/276 61/84/277 72/76/278
f 61/84/279 62/87/280 72/76/281
f 62/87/282 63/89/283 72/76/284
f 63/89/285 64/93/286 72/76/287
f 64/93/288 65/95/289 72/76/290
f 65/95/291 66/92/292 72/76/293
f 66/92/294 67/88/295 72/76/296
f 67/88/297 68/85/298 72/76/299
f 68/85/300 69/82/301 72/76/302
f 69/82/303 70/78/304 72/76/305
f 70/78/306 57/74/307 72/76/308
